<?xml version="1.0" encoding="UTF-8"?>
<svg xmlns="http://www.w3.org/2000/svg" xmlns:xlink="http://www.w3.org/1999/xlink" version="1.1" id="Layer_1" x="0px" y="0px" viewBox="0 0 500 500" style="enable-background:new 0 0 500 500;" xml:space="preserve" width="512" height="512">
<path d="M119.2,104.2c-2,0-3.8,1-5,2.6l-19.5,27.5c-1.9,2.6-1.8,4.6,0,7.2l19.5,27.5c1.1,1.6,3,2.6,5,2.6s3.8-1,5-2.6l19.5-27.5  c1.7-2.4,1.8-4.5,0-7.2l-19.5-27.5C122.9,105.1,121.1,104.2,119.2,104.2z M119.1,154.8l-12-17l12-17l12,17L119.1,154.8z M258.7,41.1  c-1.2-1.7-3-2.6-5-2.6s-3.8,1-5,2.6l-19.5,27.5c-1.9,2.6-1.8,4.6,0,7.2l19.5,27.5c1.1,1.6,3,2.6,5,2.6s3.8-1,5-2.6l19.5-27.5  c1.7-2.4,1.8-4.5,0-7.2L258.7,41.1z M253.7,89.2l-12-17l12-17l12,17L253.7,89.2z M139.6,75.8l19.5,27.5c1.1,1.6,3,2.6,5,2.6  s3.8-1,5-2.6l19.5-27.5c1.7-2.4,1.8-4.5,0-7.2l-19.5-27.5c-1.2-1.7-3-2.6-5-2.6s-3.8,1-5,2.6l-19.5,27.5  C137.7,71.2,137.8,73.2,139.6,75.8z M164,55.2l12,17l-12,17l-12-17L164,55.2z M208.9,104.2c-2,0-3.8,1-5,2.6l-19.5,27.5  c-1.9,2.6-1.8,4.6,0,7.2l19.5,27.5c1.1,1.6,3,2.6,5,2.6s3.8-1,5-2.6l19.5-27.5c1.7-2.4,1.8-4.5,0-7.2l-19.5-27.5  C212.7,105.1,210.9,104.2,208.9,104.2z M208.9,154.8l-12-17l12-17l12,17L208.9,154.8z M274.2,141.5l19.5,27.5c1.1,1.6,3,2.6,5,2.6  s3.8-1,5-2.6l19.5-27.5c1.7-2.4,1.8-4.5,0-7.2l-19.5-27.5c-1.2-1.7-3-2.6-5-2.6s-3.8,1-5,2.6l-19.5,27.5  C272.3,136.9,272.4,138.9,274.2,141.5z M298.5,120.8l12,17l-12,16.9l-12-16.9L298.5,120.8z M419.4,251.9l-19.5-27.5  c-1.2-1.7-3-2.6-5-2.6s-3.8,1-5,2.6l-19.5,27.5c-1.9,2.6-1.8,4.6,0,7.2l19.5,27.5c1.1,1.6,3,2.6,5,2.6s3.8-1,5-2.6l19.5-27.5  C421.1,256.7,421.1,254.5,419.4,251.9z M394.8,272.3l-12-16.9l12-17l12,17L394.8,272.3z M304.9,417.1c3.4,0,6.1-2.7,6.1-6.1v-65.9  l5.1-8.7c1.3-2,1.3-4.3,0.2-6.2l-6-10.2c-1.1-1.9-3.1-3-5.3-3c-2.2,0-4.2,1.1-5.3,3l-6,10.2c-1.1,1.9-1.1,4.3,0,6.2l5.1,8.7V411  C298.8,414.4,301.5,417.1,304.9,417.1z M271.5,296.5l-6-10.2c-1.1-1.9-3.1-3-5.3-3s-4.2,1.1-5.3,3l-6,10.2c-1.1,1.9-1.1,4.3,0,6.2  l5.1,8.7v65.9c0,3.4,2.7,6.1,6.1,6.1c3.4,0,6.1-2.7,6.1-6.1v-65.9l5.1-8.7C272.6,300.7,272.6,298.4,271.5,296.5z M260.2,400.1  c-3.4,0-6.1,2.7-6.1,6.1v4.9c0,3.4,2.7,6.1,6.1,6.1c3.4,0,6.1-2.7,6.1-6.1v-4.9C266.3,402.8,263.6,400.1,260.2,400.1z M329.6,251.9  l-19.5-27.5c-1.2-1.7-3-2.6-5-2.6s-3.8,1-5,2.6l-19.5,27.5c-1.9,2.6-1.8,4.6,0,7.2l19.5,27.5c1.1,1.6,3,2.6,5,2.6s3.8-1,5-2.6  l19.5-27.5C331.3,256.7,331.4,254.5,329.6,251.9z M305.1,272.4l-12-17l12-17l12,17L305.1,272.4z M394.7,417.1c3.4,0,6.1-2.7,6.1-6.1  v-65.9l5.1-8.7c1.3-2,1.3-4.3,0.2-6.2l-6-10.2c-1.1-1.9-3.1-3-5.3-3s-4.2,1.1-5.3,3l-6,10.2c-1.1,1.9-1.1,4.3,0,6.2l5.1,8.7V411  C388.6,414.4,391.3,417.1,394.7,417.1z M361.2,296.5l-6-10.2c-1.1-1.9-3.1-3-5.3-3s-4.2,1.1-5.3,3l-6,10.2c-1.1,1.9-1.1,4.3,0,6.2  l5.1,8.7v65.9c0,3.4,2.7,6.1,6.1,6.1c3.4,0,6.1-2.7,6.1-6.1v-65.9l5.1-8.7C362.3,300.7,362.3,298.4,361.2,296.5z M349.9,400.1  c-3.4,0-6.1,2.7-6.1,6.1v4.9c0,3.4,2.7,6.1,6.1,6.1c3.4,0,6.1-2.7,6.1-6.1v-4.9C356,402.8,353.3,400.1,349.9,400.1z M215.3,417.1  c3.4,0,6.1-2.7,6.1-6.1v-65.9l5.1-8.7c1.3-2,1.3-4.3,0.2-6.2l-6-10.2c-1.1-1.9-3.1-3-5.3-3s-4.2,1.1-5.3,3l-6,10.2  c-1.1,1.9-1.1,4.3,0,6.2l5.1,8.7V411C209.2,414.4,211.9,417.1,215.3,417.1z M489.9,470.6c-5.6-5.6-13.3-9.3-21.8-9.5  c-6.419,0-11.074-1.717-15.3-5.9c-3.719-3.681-5.9-8.7-5.9-14.3V223.8c0-8.9-3.6-17-9.5-22.9c-5.8-5.8-14-9.5-22.9-9.5h-64V73.2h5.6  c13.623,0,22.2-11.537,22.2-22.2c0-10.834-8.76-22.2-22.2-22.2h-5.6c0-9.1-1.9-14.2-8.2-20.3c-5-5-12.1-8.2-19.8-8.2h-143  c-3.4,0-6.1,2.7-6.1,6.1c0,3.4,2.7,6.1,6.1,6.1h143.2c4.4,0,8.3,1.8,11.2,4.6c2.9,2.9,4.6,6.8,4.6,11.2v163.2H189.4  c-3.4,0-6.1,2.7-6.1,6.1c0,3.4,2.7,6.1,6.1,6.1h225.3c5.6,0,10.6,2.2,14.3,5.9c3.7,3.7,5.9,8.7,5.9,14.3v217.2  c0,7.6,2.6,14.6,7.1,20.2H195.5c-5.6,0-10.6-2.2-14.3-5.9s-5.9-8.7-5.9-14.3V223.8c0-8.9-3.6-17-9.5-22.9c-5.8-5.8-14-9.5-22.9-9.5  c-8.9,0-17,3.6-22.9,9.5c-5.8,5.8-9.5,14-9.5,22.9V247c0,4.4-1.8,8.3-4.6,11.2c-2.9,2.9-6.8,4.6-11.2,4.6c-4.4,0-8.3-1.8-11.2-4.6  c-2.9-2.9-4.6-6.8-4.6-11.2V26.8c0-5.7-1.1-10.4-3.1-14.2h73.6c3.4,0,6.1-2.7,6.1-6.1s-2.7-6.1-6.1-6.1H57.3  c-18.981,0-25.977,19.021-27.5,28.5h-7.2C6.796,28.9,0.4,43.4,0.4,51.1c0,8.04,6.089,22.1,22.5,22.1l-3.1,28.6  c-0.2,1.7,0.4,3.4,1.5,4.7c1.2,1.3,2.8,2,4.5,2H67V247c0,7.7,3.1,14.7,8.2,19.8c4.8,4.8,11.4,8,18.7,8.3h69.3V441  c0,8.9,3.6,17,9.5,22.9c5.8,5.8,14,9.5,22.9,9.5h9.6c6.779,0,10.528,1.425,15.1,6c3.7,3.7,5.9,8.7,5.9,14.3c0,3.4,2.7,6.1,6.1,6.1  c3.4,0,6.1-2.7,6.1-6.1c0-7.6-2.7-14.7-7.1-20.2h12.2c5.6,0,10.6,2.3,14.3,6c3.7,3.7,5.9,8.7,5.9,14.3c0,3.4,2.7,6.1,6.1,6.1  c3.4,0,6.1-2.7,6.1-6.1c0-7.6-2.7-14.7-7.1-20.2H281c5.6,0,10.6,2.3,14.3,6c3.7,3.7,5.9,8.7,5.9,14.3c0,3.4,2.7,6.1,6.1,6.1  c3.4,0,6.1-2.7,6.1-6.1c0-7.6-2.7-14.7-7.1-20.2h12.2c5.6,0,10.6,2.3,14.3,6c3.7,3.7,5.9,8.7,5.9,14.3c0,3.4,2.7,6.1,6.1,6.1  c3.4,0,6.1-2.7,6.1-6.1c0-7.6-2.7-14.7-7.1-20.2H356c5.6,0,10.6,2.3,14.3,6c3.7,3.7,5.9,8.7,5.9,14.3c0,3.4,2.7,6.1,6.1,6.1  c3.4,0,6.1-2.7,6.1-6.1c0-7.6-2.7-14.7-7.1-20.2h12.2c5.6,0,10.6,2.3,14.3,6c3.7,3.7,5.9,8.7,5.9,14.3c0,3.4,2.7,6.1,6.1,6.1  c3.4,0,6.1-2.7,6.1-6.1c0-7.6-2.7-14.7-7.1-20.2H431c5.6,0,10.6,2.3,14.3,6c3.7,3.7,5.9,8.7,5.9,14.3c0,3.4,2.7,6.1,6.1,6.1  c3.4,0,6.1-2.7,6.1-6.1c0-7.6-2.7-14.7-7.1-20.2h12.2c5.6,0,10.6,2.3,14.3,6c3.7,3.7,5.9,8.7,5.9,14.3c0,3.4,2.7,6.1,6.1,6.1  c3.4,0,6.1-2.7,6.1-6.1C499.4,484.6,495.8,476.5,489.9,470.6z M350.7,41h5.6c2.8,0,5.3,1.1,7.1,2.9c1.8,1.8,2.9,4.3,2.9,7.1  s-1.1,5.3-2.9,7.1c-1.8,1.8-4.3,2.9-7.1,2.9h-5.6V41z M32.6,96.3l2.5-23.2H67l0.1,23.2H32.6z M67.1,61.1H22.8  c-2.8,0-5.3-1.1-7.1-2.9s-2.9-4.3-2.9-7.1c0-2.8,1.1-5.3,2.9-7.1s4.3-2.9,7.1-2.9h44.3V61.1z M42.4,28.9c0.6-2.6,4.2-16.3,14.3-16.3  c7.8,0,10.5,6.6,10.5,16.3H42.4z M163.4,262.9h-0.1h-45.2c3.1-4.5,4.9-10,4.9-15.8v-23.2c0-5.6,2.2-10.6,5.9-14.3  c3.7-3.7,8.7-5.9,14.3-5.9c5.6,0,10.6,2.2,14.3,5.9c3.7,3.7,5.9,8.7,5.9,14.3V262.9z M239.9,251.9l-19.5-27.5c-1.2-1.7-3-2.6-5-2.6  s-3.8,1-5,2.6l-19.5,27.5c-1.9,2.6-1.8,4.6,0,7.2l19.5,27.5c1.1,1.6,3,2.6,5,2.6s3.8-1,5-2.6l19.5-27.5  C241.6,256.7,241.6,254.5,239.9,251.9z M215.4,272.4l-12-17l12-17l12,17L215.4,272.4z M34.343,380.9  c-4.829,0-8.743,3.914-8.743,8.743s3.914,8.743,8.743,8.743s8.743-3.914,8.743-8.743S39.172,380.9,34.343,380.9z M97.2,380.9  c-4.829,0-8.743,3.914-8.743,8.743s3.914,8.743,8.743,8.743s8.743-3.914,8.743-8.743S102.029,380.9,97.2,380.9z M65.7,412.157  c-4.829,0-8.743,3.914-8.743,8.743s3.914,8.743,8.743,8.743s8.743-3.914,8.743-8.743S70.529,412.157,65.7,412.157z M65.7,349.157  c-4.829,0-8.743,3.914-8.743,8.743s3.914,8.743,8.743,8.743s8.743-3.914,8.743-8.743S70.529,349.157,65.7,349.157z M415.5,89  c4.529,0,8.2-3.671,8.2-8.2c0-4.529-3.671-8.2-8.2-8.2s-8.2,3.671-8.2,8.2C407.3,85.329,410.971,89,415.5,89z M442.5,116  c4.529,0,8.2-3.671,8.2-8.2c0-4.529-3.671-8.2-8.2-8.2s-8.2,3.671-8.2,8.2C434.3,112.329,437.971,116,442.5,116z M469.5,89  c4.529,0,8.2-3.671,8.2-8.2c0-4.529-3.671-8.2-8.2-8.2s-8.2,3.671-8.2,8.2C461.3,85.329,464.971,89,469.5,89z M442.5,62  c4.529,0,8.2-3.671,8.2-8.2s-3.671-8.2-8.2-8.2s-8.2,3.671-8.2,8.2S437.971,62,442.5,62z"/>
</svg>
