<?xml version="1.0" encoding="utf-8"?>
<!-- Generator: Adobe Illustrator 27.2.0, SVG Export Plug-In . SVG Version: 6.00 Build 0)  -->
<svg version="1.1" id="Capa_1" xmlns="http://www.w3.org/2000/svg" xmlns:xlink="http://www.w3.org/1999/xlink" x="0px" y="0px"
	 viewBox="0 0 512 512" style="enable-background:new 0 0 512 512;" xml:space="preserve">
<path d="M13.4,420.9h485.1c7.8-2.7,13.4-10.1,13.4-18.9v-32.7c0-20.3-16.5-36.8-36.8-36.8v0H36.8C16.5,332.5,0,349,0,369.3V402
	C0,410.7,5.6,418.2,13.4,420.9z M8.4,369.3c0-15.7,12.8-28.4,28.4-28.4h438.4c15.7,0,28.4,12.8,28.4,28.4l0,32.7
	c0,6.4-5.2,11.6-11.6,11.6H20c-6.4,0-11.6-5.2-11.6-11.6V369.3z"/>
<path d="M66.2,184c6.2,20.2,19.5,48.8,47.5,70.8c15.5,12.2,31.1,18.9,41.5,22.3c17.4,5.8,33.5,7.3,45.7,7.6
	c-7.7,1.9-15.8,3.8-20.4,4.8c-5,1.1-7.6,1.7-8.8,2.1c-2.6,0.8-3.6,3.1-3.2,5c0.7,3.5,4.1,4,9.8,4.9c4.4,0.7,10.2,1.3,16.2,1.8
	c5.4,0.4,13.7,0.9,23.1,0.9c7,0,14.6-0.3,22.1-1c27.5-2.9,53.5-5.5,74.5-24.1c8.7-7.6,14.9-16.5,19.1-22.6
	c-1.4,7.5-4.2,17.7-6.2,21.5c-1.4,2.8-0.2,5.1,1.5,6.1c2.8,1.7,5.5,0,9.2-2.8c2.7-2,6.1-4.8,9.6-7.8c4.1-3.6,14.3-12.9,20.1-21.1
	c1.2-1.7,2.3-3.3,3.4-4.7c8.5-11.9,11.1-15.5,18.8-35.1c8.3-21.2,4.9-35.5,1-42c4.2-2.8,8.6-5.5,13.2-8c-2,13.4-0.4,26.1,1.9,35.8
	c0.5,1.9,2.2,3.2,4.1,3.2c0.3,0,0.6,0,1-0.1c2.3-0.5,3.6-2.8,3.1-5c-2.3-9.9-3.9-23.1-1-36.8c13.2,11.1,18.5,22.8,19,25.2
	c0.4,2,2.2,3.3,4.1,3.3c0.3,0,0.6,0,0.9-0.1c2.3-0.5,3.7-2.7,3.2-5c-0.7-3.5-6.2-16-19.7-28.1c17.4-6.5,37.5-9.3,61.3-5.5
	c2.3,0.4,4.4-1.2,4.8-3.5c0.4-2.3-1.2-4.4-3.5-4.8c-25.8-4.2-47.6-0.8-66.4,6.3c0.8-1.9,1.7-3.9,2.8-5.8c1.9-3.5,4.2-6.9,6.8-10.1
	c1.5-1.8,1.2-4.4-0.6-5.9c-1.8-1.5-4.4-1.2-5.9,0.6c-2.9,3.6-5.5,7.4-7.7,11.4c-1.5,2.7-2.7,5.4-3.8,8.1c-3.1-2-6.5-3.8-10.2-5.6
	c-7.2-3.4-15.1-5.3-23.4-5.8c-2.3-0.1-4.3,1.7-4.4,4s1.7,4.3,4,4.4c7.2,0.4,14.1,2,20.3,5c3.4,1.6,6.6,3.4,9.5,5.2
	c-6.9,3.4-13.3,7.3-19.3,11.4c-12.2-8.6-32.5-9.7-51-2.4c-7.8,3.1-18,8.7-21.3,10.5c-7.5,4.1-11.9,7-15.5,9.3
	c-1.9,1.2-3.5,2.3-5.1,3.2c-16.6,9.6-40.7,9.9-52.3,10.1c-2.3,0-4.1,0.1-5.4,0.1c-1.6,0.1-4.8,0.3-5.8,3.4c-0.4,1.4-0.2,3.6,1.9,5
	c4.6,3.2,12.9,5.8,21,8.4c2.2,0.7,4.8,1.5,7.3,2.4c-9.1,0.6-25.2-0.1-42.3-4.3c-11-2.7-22.7-6.1-32-8.8c-4.7-1.3-8.7-2.5-11.5-3.3
	c-4.5-1.2-8-2.1-9.5,1.5c-0.4,0.8-1.2,3.7,2.5,5.9c4.8,2.8,13.4,10.1,14.7,13.3c-4.8,2.1-28.1-0.5-53-10.2
	c-21.5-8.4-41.1-21.4-58.3-38.8c-1.4-1.4-3.6-1.6-5.3-0.6c-1.7,1.1-2.3,3.2-1.6,5.1L66.2,184z M124.4,216.5
	c12.3,4.8,26.6,8.7,38.4,10.4c19.8,2.9,24.1-1.2,25.5-4.6c1.7-3.8-0.5-8.2-3.9-12.1c9,2.6,19.7,5.6,29.9,8.1
	c24.5,6,49.8,5.9,56.1,1.8c1.8-1.2,2.4-2.7,2.6-3.7c1.1-5.9-6.1-8.2-19.2-12.3c-0.9-0.3-1.8-0.6-2.7-0.9
	c13.2-0.7,31.1-2.9,44.9-10.9c1.8-1,3.5-2.1,5.5-3.4c3.5-2.3,7.8-5.1,15-9c8.6-4.7,15.5-8.1,20.4-10.1c14.4-5.7,30.4-5.5,40.5-0.1
	c-9.7,7.3-18.4,14.9-26.3,21.9c-2.2,2-4.4,3.9-6.5,5.7c-23,20-43,33.6-63.2,43.1c-36.9,17.3-76.7,18.9-112,4.7
	c-2.1-0.9-4.6,0.2-5.5,2.3c-0.9,2.1,0.2,4.6,2.3,5.5c16.9,6.8,34.7,10.2,52.8,10.2c22,0,44.4-5,65.8-15.1
	c20.9-9.8,41.5-23.8,65.1-44.3c2.2-1.9,4.3-3.8,6.6-5.8c8.4-7.4,17.3-15.3,27.2-22.6c2.4,4.3,5.3,15.7-1.9,34.1
	c-7.3,18.6-9.5,21.7-17.8,33.3c-1,1.4-2.1,3-3.4,4.7c-5.2,7.3-14.9,16.4-22.1,22.5c2.5-8.9,4.8-19.9,3.3-24.4c-0.7-2-1.9-3-2.9-3.4
	c-4.6-2.2-7.6,2.2-12.3,8.9c-4.2,6.1-10,14.5-18.1,21.7c-19.1,16.8-42.6,19.2-69.9,22c-15.1,1.6-31.7,1.1-44.3,0.1
	c4.9-1.2,10-2.4,14.6-3.6c14.3-3.8,19-5.9,18.5-10.5c-0.3-2.8-2.5-4.3-6.4-4.5c-1.7-0.1-4,0-6.8,0c-11.5,0.3-32.9,0.8-56.6-7.1
	c-9.8-3.3-24.5-9.6-39-21c-23.5-18.5-36-42-42.6-60.4C91,200.1,107.1,209.7,124.4,216.5L124.4,216.5z"/>
</svg>
